<?xml version="1.0" encoding="utf-8"?>
<!-- Generator: Adobe Illustrator 19.1.0, SVG Export Plug-In . SVG Version: 6.00 Build 0)  -->
<!DOCTYPE svg PUBLIC "-//W3C//DTD SVG 1.1//EN" "http://www.w3.org/Graphics/SVG/1.1/DTD/svg11.dtd">

<svg version="1.1" id="Layer_1" xmlns="http://www.w3.org/2000/svg" xmlns:xlink="http://www.w3.org/1999/xlink" x="0px" y="0px"
	 width="210px" height="60px" viewBox="0 0 210 60" enable-background="new 0 0 210 60" xml:space="preserve">
<path fill="#383838" d="M23,10c-0.6,0.3-1.2,0.4-1.9,0.5c0.7-0.4,1.2-1,1.4-1.8c-0.6,0.4-1.3,0.6-2.1,0.8c-0.6-0.6-1.5-1-2.4-1
	c-1.7,0-3.2,1.5-3.2,3.3c0,0.3,0,0.5,0.1,0.7c-2.7-0.1-5.2-1.4-6.8-3.4c-0.3,0.5-0.4,1-0.4,1.7c0,1.1,0.6,2.1,1.5,2.7
	c-0.5,0-1-0.2-1.5-0.4l0,0c0,1.6,1.1,2.9,2.6,3.2c-0.3,0.1-0.6,0.1-0.9,0.1c-0.2,0-0.4,0-0.6-0.1c0.4,1.3,1.6,2.3,3.1,2.3
	C10.8,19.5,9.4,20,7.8,20c-0.3,0-0.5,0-0.8,0c1.5,0.9,3.2,1.5,5,1.5c6,0,9.3-5,9.3-9.3c0-0.1,0-0.3,0-0.4C22,11.3,22.6,10.7,23,10z"
	/>
<path fill="#383838" d="M44.95,7.19007c-4.4,0-8,3.6-8,8c0,3.5,2.3,6.5,5.5,7.6c0.4,0.1,0.5-0.2,0.5-0.4c0-0.2,0-0.7,0-1.4
	c-2.2,0.5-2.7-1-2.7-1c-0.4-0.9-0.9-1.2-0.9-1.2c-0.7-0.5,0.1-0.5,0.1-0.5c0.8,0.1,1.2,0.8,1.2,0.8c0.7,1.3,1.9,0.9,2.3,0.7
	c0.1-0.5,0.3-0.9,0.5-1.1c-1.8-0.2-3.6-0.9-3.6-4c0-0.9,0.3-1.6,0.8-2.1c-0.1-0.2-0.4-1,0.1-2.1c0,0,0.7-0.2,2.2,0.8
	c0.6-0.2,1.3-0.3,2-0.3s1.4,0.1,2,0.3c1.5-1,2.2-0.8,2.2-0.8c0.4,1.1,0.2,1.9,0.1,2.1c0.5,0.6,0.8,1.3,0.8,2.1
	c0,3.1-1.9,3.7-3.7,3.9c0.3,0.4,0.6,0.9,0.6,1.6c0,1.1,0,1.9,0,2.2c0,0.2,0.1,0.5,0.6,0.4c3.2-1.1,5.5-4.1,5.5-7.6
	C52.95,10.79007,49.35,7.19007,44.95,7.19007z"/>
<path id="White_2_" fill="#383838" d="M82.3,7H67.7C67.3,7,67,7.3,67,7.7v14.7c0,0.3,0.3,0.6,0.7,0.6H75v-5h-2v-3h2v-2
	c0-2.1,1.2-3,3-3c0.9,0,1.8,0,2,0v3h-1c-0.6,0-1,0.4-1,1v1h2.6L80,18h-2v5h4.3C82.7,23,83,22.7,83,22.3V7.7C83,7.3,82.7,7,82.3,7z"
	/>
<path fill="#383838" d="M105,7c-4.4,0-8,3.6-8,8s3.6,8,8,8s8-3.6,8-8S109.4,7,105,7z M107.2,14.4c0,0-0.2-0.6-0.3-0.8
	c1.7-0.8,2.8-1.7,3.2-2.2c0.7,0.9,1.1,2,1.2,3.2C110.5,14.4,108.7,14.1,107.2,14.4z M106.1,12.1c-0.8-1.4-1.7-2.6-2.1-3.3
	c1.9-0.5,3.6,0.1,4.9,1.3C108.5,10.6,107.7,11.4,106.1,12.1z M102.1,9.5c0.4,0.5,1.2,1.7,2,3.2c-2.2,0.5-4.2,0.6-5.1,0.6
	C99.4,11.7,100.6,10.3,102.1,9.5z M105,14.3c0.1,0.2,0.2,0.4,0.3,0.5c-2.8,0.9-4.60001,3.2-5.2,4.1c-0.8-1.1-1.3-2.4-1.3-3.7
	C99.7,15.1,102.3,15,105,14.3z M106,16.5c0.7,2,1.1,3.6,1.2,4.4c-2.1,0.7-4.5,0.3-5.8-0.8C101.8,19.4,103.1,17.6,106,16.5z
	 M108.9,19.9c-0.2-0.8-0.5-2.2-1.1-3.9c1.1-0.2,2.7,0,3.3,0.2C110.8,17.7,110,19,108.9,19.9z"/>
<path fill="#383838" d="M135.05,14v2.4h4.09999c-0.2,1-1.2,3-4,3c-2.39999,0-4.29999-2-4.29999-4.4s2-4.4,4.29999-4.4
	c1.40001,0,2.3,0.6,2.8,1.1l1.90001-1.8c-1.20001-1.2-2.8-1.9-4.70001-1.9c-3.89999,0-7,3.1-7,7s3.10001,7,7,7
	c4,0,6.70001-2.8,6.70001-6.8c0-0.5,0-0.8-0.10001-1.2H135.05L135.05,14z"/>
<g>
	<circle fill="#383838" cx="160" cy="20" r="2"/>
	<path fill="#383838" d="M172,22h-2.7c0-6.2-5.10001-11.3-11.3-11.3V8C165.7,8,172,14.3,172,22z"/>
	<path fill="#383838" d="M167.3,22H164.7c0-3.7-3-6.7-6.7-6.7v-2.6C163.10001,12.7,167.3,16.9,167.3,22z"/>
</g>
<path fill="#383838" d="M203,14.8c0-1.1-0.89999-1.9-1.89999-1.9c-0.5,0-0.90001,0.2-1.20001,0.4c-1.2-0.7-2.7-1.2-4.29999-1.3
	l0.79999-2.6l2.3,0.5c0.10001,0.8,0.8,1.5,1.60001,1.5c0.89999,0,1.59999-0.7,1.59999-1.6S201.2,8.2,200.3,8.2
	c-0.60001,0-1.2,0.4-1.40001,0.9l-2.7-0.7c-0.2,0-0.39999,0.1-0.5,0.3l-1,3.3c-1.7,0-3.3,0.5-4.59999,1.2
	c-0.3-0.2-0.70001-0.4-1.20001-0.4c-1,0-1.89999,0.9-1.89999,2c0,0.7,0.3,1.2,0.8,1.6c0,0.2,0,0.3,0,0.5c0,1.3,0.8,2.6,2.2,3.5
	c1.3,0.9,3.10001,1.4,5,1.4s3.7-0.5,5-1.4c1.39999-0.9,2.2-2.1,2.2-3.5c0-0.1,0-0.3,0-0.4C202.60001,16,203,15.4,203,14.8z
	 M191.5,15.9c0-0.6,0.5-1.1,1.10001-1.1C193.2,14.8,193.7,15.3,193.7,15.9c0,0.6-0.5,1.1-1.09999,1.1C192,17,191.5,16.5,191.5,15.9z
	 M197.60001,19.1C197,19.7,196.2,19.9,195,19.9l0,0l0,0c-1.2,0-2.10001-0.3-2.60001-0.8c-0.2-0.2-0.2-0.4,0-0.6
	c0.20001-0.2,0.40001-0.2,0.60001,0c0.39999,0.4,1,0.6,2,0.6l0,0l0,0c1,0,1.60001-0.2,2-0.6c0.2-0.2,0.39999-0.2,0.60001,0
	C197.8,18.7,197.8,19,197.60001,19.1z M197.39999,17C196.8,17,196.3,16.5,196.3,15.9c0-0.6,0.5-1.1,1.09999-1.1
	C198,14.8,198.5,15.3,198.5,15.9C198.5,16.5,198,17,197.39999,17z"/>
<path fill="#FFFFFF" d="M23,40c-0.6,0.3-1.2,0.4-1.9,0.5c0.7-0.4,1.2-1,1.4-1.8c-0.6,0.4-1.3,0.6-2.1,0.8c-0.6-0.6-1.5-1-2.4-1
	c-1.7,0-3.2,1.5-3.2,3.3c0,0.3,0,0.5,0.1,0.7c-2.7-0.1-5.2-1.4-6.8-3.4c-0.3,0.5-0.4,1-0.4,1.7c0,1.1,0.6,2.1,1.5,2.7
	c-0.5,0-1-0.2-1.5-0.4l0,0c0,1.6,1.1,2.9,2.6,3.2c-0.3,0.1-0.6,0.1-0.9,0.1c-0.2,0-0.4,0-0.6-0.1c0.4,1.3,1.6,2.3,3.1,2.3
	C10.8,49.5,9.4,50,7.8,50c-0.3,0-0.5,0-0.8,0c1.5,0.9,3.2,1.5,5,1.5c6,0,9.3-5,9.3-9.3c0-0.1,0-0.3,0-0.4C22,41.3,22.6,40.7,23,40z"
	/>
<path fill="#FFFFFF" d="M44.95,37.19007c-4.4,0-8,3.6-8,8c0,3.5,2.3,6.5,5.5,7.6c0.4,0.1,0.5-0.2,0.5-0.4s0-0.7,0-1.4
	c-2.2,0.5-2.7-1-2.7-1c-0.4-0.9-0.9-1.2-0.9-1.2c-0.7-0.5,0.1-0.5,0.1-0.5c0.8,0.1,1.2,0.8,1.2,0.8c0.7,1.3,1.9,0.9,2.3,0.7
	c0.1-0.5,0.3-0.9,0.5-1.1c-1.8-0.2-3.6-0.9-3.6-4c0-0.9,0.3-1.6,0.8-2.1c-0.1-0.2-0.4-1,0.1-2.1c0,0,0.7-0.2,2.2,0.8
	c0.6-0.2,1.3-0.3,2-0.3s1.4,0.1,2,0.3c1.5-1,2.2-0.8,2.2-0.8c0.4,1.1,0.2,1.9,0.1,2.1c0.5,0.6,0.8,1.3,0.8,2.1
	c0,3.1-1.9,3.7-3.7,3.9c0.3,0.4,0.6,0.9,0.6,1.6c0,1.1,0,1.9,0,2.2c0,0.2,0.1,0.5,0.6,0.4c3.2-1.1,5.5-4.1,5.5-7.6
	C52.95,40.79007,49.35,37.19007,44.95,37.19007z"/>
<path id="White_1_" fill="#FFFFFF" d="M82.3,37H67.7C67.3,37,67,37.3,67,37.7v14.7c0,0.3,0.3,0.6,0.7,0.6H75v-5h-2v-3h2v-2
	c0-2.1,1.2-3,3-3c0.9,0,1.8,0,2,0v3h-1c-0.6,0-1,0.4-1,1v1h2.6L80,48h-2v5h4.3C82.7,53,83,52.7,83,52.3V37.7
	C83,37.3,82.7,37,82.3,37z"/>
<path fill="#FFFFFF" d="M105,37c-4.4,0-8,3.6-8,8s3.6,8,8,8s8-3.6,8-8S109.4,37,105,37z M107.2,44.4c0,0-0.2-0.6-0.3-0.8
	c1.7-0.8,2.8-1.7,3.2-2.2c0.7,0.9,1.1,2,1.2,3.2C110.5,44.4,108.7,44.1,107.2,44.4z M106.1,42.1c-0.8-1.4-1.7-2.6-2.1-3.3
	c1.9-0.5,3.6,0.1,4.9,1.3C108.5,40.6,107.7,41.4,106.1,42.1z M102.1,39.5c0.4,0.5,1.2,1.7,2,3.2c-2.2,0.5-4.2,0.6-5.1,0.6
	C99.4,41.7,100.6,40.3,102.1,39.5z M105,44.3c0.1,0.2,0.2,0.4,0.3,0.5c-2.8,0.9-4.60001,3.2-5.2,4.1c-0.8-1.1-1.3-2.4-1.3-3.7
	C99.7,45.1,102.3,45,105,44.3z M106,46.5c0.7,2,1.1,3.6,1.2,4.4c-2.1,0.7-4.5,0.3-5.8-0.8C101.8,49.4,103.1,47.6,106,46.5z
	 M108.9,49.9c-0.2-0.8-0.5-2.2-1.1-3.9c1.1-0.2,2.7,0,3.3,0.2C110.8,47.7,110,49,108.9,49.9z"/>
<path fill="#FFFFFF" d="M135.05,44v2.4h4.09999c-0.2,1-1.2,3-4,3c-2.39999,0-4.29999-2-4.29999-4.4s2-4.4,4.29999-4.4
	c1.40001,0,2.3,0.6,2.8,1.1l1.90001-1.8c-1.20001-1.2-2.8-1.9-4.70001-1.9c-3.89999,0-7,3.1-7,7s3.10001,7,7,7
	c4,0,6.70001-2.8,6.70001-6.8c0-0.5,0-0.8-0.10001-1.2H135.05L135.05,44z"/>
<g>
	<circle fill="#FFFFFF" cx="160" cy="50" r="2"/>
	<path fill="#FFFFFF" d="M172,52h-2.7c0-6.2-5.10001-11.3-11.3-11.3V38C165.7,38,172,44.3,172,52z"/>
	<path fill="#FFFFFF" d="M167.3,52H164.7c0-3.7-3-6.7-6.7-6.7v-2.6C163.10001,42.7,167.3,46.9,167.3,52z"/>
</g>
<path fill="#FFFFFF" d="M203,44.8c0-1.1-0.89999-1.9-1.89999-1.9c-0.5,0-0.90001,0.2-1.20001,0.4c-1.2-0.7-2.7-1.2-4.29999-1.3
	l0.79999-2.6l2.3,0.5c0.10001,0.8,0.8,1.5,1.60001,1.5c0.89999,0,1.59999-0.7,1.59999-1.6c0-0.9-0.7-1.6-1.59999-1.6
	c-0.60001,0-1.2,0.4-1.40001,0.9l-2.7-0.7c-0.2,0-0.39999,0.1-0.5,0.3l-1,3.3c-1.7,0-3.3,0.5-4.59999,1.2
	c-0.3-0.2-0.70001-0.4-1.20001-0.4c-1,0-1.89999,0.9-1.89999,2c0,0.7,0.3,1.2,0.8,1.6c0,0.2,0,0.3,0,0.5c0,1.3,0.8,2.6,2.2,3.5
	c1.3,0.9,3.10001,1.4,5,1.4s3.7-0.5,5-1.4c1.39999-0.9,2.2-2.1,2.2-3.5c0-0.1,0-0.3,0-0.4C202.60001,46,203,45.4,203,44.8z
	 M191.5,45.9c0-0.6,0.5-1.1,1.10001-1.1C193.2,44.8,193.7,45.3,193.7,45.9c0,0.6-0.5,1.1-1.09999,1.1C192,47,191.5,46.5,191.5,45.9z
	 M197.60001,49.1C197,49.7,196.2,49.9,195,49.9l0,0l0,0c-1.2,0-2.10001-0.3-2.60001-0.8c-0.2-0.2-0.2-0.4,0-0.6
	c0.20001-0.2,0.40001-0.2,0.60001,0c0.39999,0.4,1,0.6,2,0.6l0,0l0,0c1,0,1.60001-0.2,2-0.6c0.2-0.2,0.39999-0.2,0.60001,0
	C197.8,48.7,197.8,49,197.60001,49.1z M197.39999,47C196.8,47,196.3,46.5,196.3,45.9c0-0.6,0.5-1.1,1.09999-1.1
	C198,44.8,198.5,45.3,198.5,45.9C198.5,46.5,198,47,197.39999,47z"/>
</svg>
