<?xml version="1.0" encoding="utf-8"?>
<!-- Generator: Adobe Illustrator 19.1.0, SVG Export Plug-In . SVG Version: 6.00 Build 0)  -->
<!DOCTYPE svg PUBLIC "-//W3C//DTD SVG 1.1//EN" "http://www.w3.org/Graphics/SVG/1.1/DTD/svg11.dtd">

<svg version="1.1" id="Layer_1" xmlns="http://www.w3.org/2000/svg" xmlns:xlink="http://www.w3.org/1999/xlink" x="0px" y="0px"
	 width="210px" height="60px" viewBox="0 0 210 60" enable-background="new 0 0 210 60" xml:space="preserve">

	<g transform="translate(5.000000,24.000000) scale(0.030000,-0.030000)"
fill="#000000" stroke="none">
<path d="M52 434 c-29 -93 -52 -175 -52 -181 0 -24 269 -233 300 -233 55 0
303 218 292 256 -101 353 -116 381 -139 259 -7 -36 -18 -90 -25 -120 -12 -52
-9 -55 59 -55 l72 0 -114 -158 c-136 -187 -143 -187 -87 -5 23 77 42 145 42
151 0 7 -45 12 -100 12 -55 0 -100 -5 -100 -12 0 -6 19 -74 42 -151 56 -183
49 -182 -87 5 l-116 158 71 0 c77 0 81 8 47 128 -38 132 -50 126 -105 -54z"/>
	</g>

		<g transform="translate(35.000000,24.000000) scale(0.030000,-0.030000)"
fill="white" stroke="white">
<path d="M52 434 c-29 -93 -52 -175 -52 -181 0 -24 269 -233 300 -233 55 0
303 218 292 256 -101 353 -116 381 -139 259 -7 -36 -18 -90 -25 -120 -12 -52
-9 -55 59 -55 l72 0 -114 -158 c-136 -187 -143 -187 -87 -5 23 77 42 145 42
151 0 7 -45 12 -100 12 -55 0 -100 -5 -100 -12 0 -6 19 -74 42 -151 56 -183
49 -182 -87 5 l-116 158 71 0 c77 0 81 8 47 128 -38 132 -50 126 -105 -54z"/>
	</g>
</svg>
