<?xml version="1.0" standalone="no"?>
<!DOCTYPE svg PUBLIC "-//W3C//DTD SVG 20010904//EN"
        "http://www.w3.org/TR/2001/REC-SVG-20010904/DTD/svg10.dtd">
<svg version="1.0" id="fof-illustration"
			xmlns="http://www.w3.org/2000/svg" xmlns:xlink="http://www.w3.org/1999/xlink" x="0px"
				 y="0px" viewBox="0 0 385 432" style="enable-background:new 0 0 385 432;" xml:space="preserve">
			<style type="text/css">
				.fof-st0{fill:#E6EDED;}
				.fof-st1{fill:#3D4244;}
				.fof-st2{fill:#D5E0E0;}
				.fof-st3{opacity:0.3;fill:#59D871;}
				.fof-st4{fill:#AAE2B3;}
				.fof-st5{fill:#749676;}
				.fof-st6{fill:#67C176;}
				.fof-st7{fill:#C1E7C8;}
				.fof-st8{fill:#32593A;}
				.fof-st9{fill:#B1795A;}
				.fof-st10{fill:#B8CA51;}
				.fof-st11{fill:#66CA6A;}
				.fof-st12{fill:#4C7D64;}
				.fof-st13{fill:#99C6AB;}
				.fof-st14{fill:#9DC3A4;}
				.fof-st15{fill:#406546;}
				.fof-st16{fill:#A4724C;}
				.fof-st17{fill:#628869;}
			</style>
			<g id="fof-ufo">
				<ellipse class="fof-st0" cx="193.2" cy="31.8" rx="53.6" ry="31"/>
				<path class="fof-st1" d="M255.7,97.4c75.2-11.6,129.2-39.5,129.2-39.5s-65.6-16.5-192.2-16.5S0.1,57.9,0.1,57.9s54,27.9,129.2,39.5
					H255.7z"/>
				<path class="fof-st2" d="M192.5,20.4C86.2,20.4,0.1,57.9,0.1,57.9s58.5-14.5,193-14.5s191.8,14.5,191.8,14.5S298.8,20.4,192.5,20.4z"/>
				<polygon class="fof-st3" points="259.7,97.1 193.2,97.1 193.2,97.1 126.6,97.1 33.1,401.8 193.2,401.8 193.2,401.8 353.3,401.8 	"/>
				<ellipse class="fof-st4" cx="193.2" cy="401.8" rx="160.1" ry="29.4"/>
				<ellipse id="fof-shadow" class="fof-st5" cx="214.8" cy="401.8" rx="49.9" ry="6"/>
				<ellipse class="fof-st6" cx="193.2" cy="97.1" rx="66.6" ry="5.7"/>
			</g>
			<g id="fof-browser">
				<g>

						<rect x="113.7" y="249.4" transform="matrix(0.9236 0.3833 -0.3833 0.9236 129.0217 -50.8318)" class="fof-st7" width="156.7" height="97.9"/>
				</g>
				<g>
					<path class="fof-st8" d="M283.6,282.3l-144.8-60.1l2-4.7c0.6-1.4,2.2-2.1,3.6-1.5l139.7,58c1.4,0.6,2.1,2.2,1.5,3.6L283.6,282.3z"/>
				</g>
				<g>
					<circle class="fof-st9" cx="145.3" cy="220.6" r="1.4"/>
				</g>
				<g>
					<circle class="fof-st10" cx="149.6" cy="222.4" r="1.4"/>
				</g>
				<g>
					<circle class="fof-st11" cx="153.9" cy="224.2" r="1.4"/>
				</g>
				<g id="header_1_">
					<g>

							<rect x="129.4" y="251.5" transform="matrix(0.9236 0.3833 -0.3833 0.9236 115.6856 -59.7608)" class="fof-st12" width="156.7" height="17.8"/>
					</g>
					<g>
						<circle class="fof-st13" cx="147.4" cy="235.4" r="4.8"/>
					</g>
					<g>
						<g>

								<rect x="268.6" y="277.8" transform="matrix(0.3833 -0.9236 0.9236 0.3833 -95.0562 423.1447)" class="fof-st13" width="1.4" height="9.9"/>
						</g>
						<g>

								<rect x="263.2" y="284.8" transform="matrix(-0.9236 -0.3833 0.3833 -0.9236 406.484 651.9698)" class="fof-st13" width="9.9" height="1.4"/>
						</g>
						<g>

								<rect x="262.1" y="287.5" transform="matrix(-0.9236 -0.3833 0.3833 -0.9236 403.2472 656.8042)" class="fof-st13" width="9.9" height="1.4"/>
						</g>
					</g>
				</g>
				<g id="footer_1_">
					<g>
						<path class="fof-st12" d="M240.9,378.7l-140.1-58.1c-1.3-0.5-1.9-2-1.4-3.3l4.5-11l144.8,60.1l-4.5,11
							C243.6,378.6,242.2,379.2,240.9,378.7z"/>
					</g>
					<g>

							<rect x="236.3" y="366" transform="matrix(0.3833 -0.9236 0.9236 0.3833 -194.9025 446.5886)" class="fof-st13" width="1.4" height="6.5"/>

							<rect x="214.4" y="362.6" transform="matrix(-0.9236 -0.3833 0.3833 -0.9236 288.7896 784.0154)" class="fof-st13" width="16.3" height="1.4"/>
					</g>
				</g>
				<g>

						<rect x="123.9" y="253.6" transform="matrix(0.9236 0.3833 -0.3833 0.9236 120.0806 -34.5931)" class="fof-st14" width="45.9" height="60.9"/>
				</g>
				<g>

						<rect x="136.8" y="261.9" transform="matrix(0.9236 0.3833 -0.3833 0.9236 112.4568 -37.1492)" class="fof-st15" width="25.4" height="3.4"/>
				</g>
				<g>
					<g>

							<rect x="133.9" y="271.7" transform="matrix(0.9236 0.3833 -0.3833 0.9236 115.9373 -37.0589)" class="fof-st7" width="34.2" height="1.4"/>
					</g>
					<g>

							<rect x="131.8" y="276.6" transform="matrix(0.9236 0.3833 -0.3833 0.9236 117.6413 -35.918)" class="fof-st7" width="34.2" height="1.4"/>
					</g>
					<g>

							<rect x="130.2" y="279.5" transform="matrix(0.9236 0.3833 -0.3833 0.9236 118.274 -33.1767)" class="fof-st7" width="24.4" height="1.4"/>
					</g>
				</g>
				<g>

						<rect x="123.8" y="291.5" transform="matrix(0.9236 0.3833 -0.3833 0.9236 123.31 -29.4801)" class="fof-st16" width="23.7" height="6.4"/>
				</g>
				<g>

						<rect x="171.7" y="282" transform="matrix(0.9236 0.3833 -0.3833 0.9236 136.1777 -58.6351)" class="fof-st14" width="87.1" height="60.9"/>
				</g>
				<g>
					<g>

							<rect x="212.2" y="298.1" transform="matrix(0.9236 0.3833 -0.3833 0.9236 132.2359 -66.0494)" class="fof-st7" width="39.4" height="1.4"/>
					</g>
					<g>

							<rect x="210.2" y="303" transform="matrix(0.9236 0.3833 -0.3833 0.9236 133.9399 -64.9084)" class="fof-st7" width="39.4" height="1.4"/>
					</g>
					<g>

							<rect x="208.6" y="305.7" transform="matrix(0.9236 0.3833 -0.3833 0.9236 134.41 -61.9246)" class="fof-st7" width="28.1" height="1.4"/>
					</g>
				</g>
				<g>

						<rect x="185.6" y="279.5" transform="matrix(0.9236 0.3833 -0.3833 0.9236 125.984 -52.8656)" class="fof-st15" width="20.1" height="20.5"/>
				</g>
				<g>
					<g>

							<rect x="201.8" y="323.2" transform="matrix(0.9236 0.3833 -0.3833 0.9236 141.0524 -60.1463)" class="fof-st7" width="39.4" height="1.4"/>
					</g>
					<g>

							<rect x="199.7" y="328.1" transform="matrix(0.9236 0.3833 -0.3833 0.9236 142.7565 -59.0054)" class="fof-st7" width="39.4" height="1.4"/>
					</g>
					<g>

							<rect x="198.2" y="330.7" transform="matrix(0.9236 0.3833 -0.3833 0.9236 143.2267 -56.0215)" class="fof-st7" width="28.1" height="1.4"/>
					</g>
				</g>
				<g>

						<rect x="175.2" y="304.5" transform="matrix(0.9236 0.3833 -0.3833 0.9236 134.8006 -46.9625)" class="fof-st15" width="20.1" height="20.5"/>
				</g>
				<g>
					<path class="fof-st17" d="M191.5,287.2c0.7,0.3,1.5,0,1.8-0.7s0-1.5-0.7-1.8s-1.5,0-1.8,0.7S190.8,286.9,191.5,287.2z"/>
					<polygon class="fof-st17" points="197.5,290.6 192.5,292 191.1,289.1 186.5,290.3 185,294.1 200.1,300.4 201.7,296.6 		"/>
				</g>
				<g>
					<path class="fof-st17" d="M181.3,311.8c0.7,0.3,1.5,0,1.8-0.7s0-1.5-0.7-1.8c-0.7-0.3-1.5,0-1.8,0.7S180.6,311.5,181.3,311.8z"/>
					<polygon class="fof-st17" points="187.3,315.2 182.3,316.7 180.9,313.8 176.3,314.9 174.7,318.7 189.9,325 191.5,321.2 		"/>
				</g>
			</g>
			</svg>
